<svg width="20" height="20" viewBox="0 0 20 20" fill="none" xmlns="http://www.w3.org/2000/svg">
<path fill-rule="evenodd" clip-rule="evenodd" d="M10 19.1663C15.0626 19.1663 19.1667 15.0622 19.1667 9.9996C19.1667 4.93699 15.0626 0.832932 10 0.832932C4.93743 0.832932 0.833374 4.93699 0.833374 9.9996C0.833374 15.0622 4.93743 19.1663 10 19.1663ZM6.07747 6.0774C6.40291 5.75196 6.93055 5.75196 7.25598 6.0774L10 8.82143L12.744 6.0774C13.0695 5.75196 13.5971 5.75196 13.9226 6.0774C14.248 6.40284 14.248 6.93048 13.9226 7.25591L11.1785 9.99994L13.9226 12.7441C14.2481 13.0695 14.2481 13.5971 13.9226 13.9226C13.5972 14.248 13.0696 14.248 12.7441 13.9226L10 11.1785L7.25589 13.9226C6.93045 14.248 6.40282 14.248 6.07738 13.9226C5.75194 13.5971 5.75194 13.0695 6.07738 12.7441L8.82151 9.99994L6.07747 7.25591C5.75203 6.93047 5.75203 6.40284 6.07747 6.0774Z" fill="#D9D7DE"/>
</svg>
