<svg width="155" height="32" viewBox="0 0 155 32" fill="none" xmlns="http://www.w3.org/2000/svg">
<path d="M3.44804 30.8002L3.44801 4.30056L15.6646 10.2051L13.7921 11.6097L13.7923 15.9195L19.539 11.6094V8.24835L2.47436 0L5.79884e-05 1.55225L0 28.5014L3.44804 30.8002ZM10.3442 11.5467L6.89607 9.89769L6.89626 32L23.562 21.334V18.0106L19.5398 15.9189L16.4797 18.2143L19.5475 19.8095L10.3442 25.6995V11.5467Z" fill="#9D47E0"/>
<path d="M34 23.7348H41.3591C44.8508 23.7348 47.1492 22.3204 47.1492 19.4917V19.4475C47.1492 17.3702 46.0442 16.3315 44.2541 15.6464C45.3591 15.0276 46.2873 14.0552 46.2873 12.3094V12.2652C46.2873 11.2044 45.9337 10.3425 45.2265 9.63536C44.3425 8.75138 42.9503 8.26519 41.1823 8.26519H34V23.7348ZM37.3149 14.5193V11.2486H40.674C42.1105 11.2486 42.9061 11.8232 42.9061 12.8398V12.884C42.9061 14.0331 41.9558 14.5193 40.453 14.5193H37.3149ZM37.3149 20.7514V17.3481H41.2486C42.9945 17.3481 43.768 17.989 43.768 19.0276V19.0718C43.768 20.221 42.8619 20.7514 41.3591 20.7514H37.3149Z" fill="#363640"/>
<path d="M53.2073 23.7348H56.6106V8.26519H53.2073V23.7348Z" fill="#363640"/>
<path d="M67.1827 23.7348H70.586V11.4033H75.2932V8.26519H62.4755V11.4033H67.1827V23.7348Z" fill="#363640"/>
<path d="M80.3346 23.7348H93.2186V20.7514H84.7103L93.2186 10.8508V8.26519H80.5998V11.2486H88.8429L80.3346 21.1492V23.7348Z" fill="#363640"/>
<path d="M105.286 24C110.059 24 113.529 20.3978 113.529 16V15.9558C113.529 11.558 110.104 8 105.33 8C100.557 8 97.0871 11.6022 97.0871 16V16.0442C97.0871 20.442 100.513 24 105.286 24ZM105.33 20.8619C102.59 20.8619 100.645 18.6519 100.645 16V15.9558C100.645 13.3039 102.546 11.1381 105.286 11.1381C108.026 11.1381 109.971 13.3481 109.971 16V16.0442C109.971 18.6961 108.071 20.8619 105.33 20.8619Z" fill="#363640"/>
<path d="M125.166 24C129.939 24 133.409 20.3978 133.409 16V15.9558C133.409 11.558 129.983 8 125.21 8C120.436 8 116.967 11.6022 116.967 16V16.0442C116.967 20.442 120.392 24 125.166 24ZM125.21 20.8619C122.47 20.8619 120.525 18.6519 120.525 16V15.9558C120.525 13.3039 122.425 11.1381 125.166 11.1381C127.906 11.1381 129.851 13.3481 129.851 16V16.0442C129.851 18.6961 127.95 20.8619 125.21 20.8619Z" fill="#363640"/>
<path d="M138.532 23.7348H141.869V13.7017L146.178 20.2431H146.267L150.62 13.6354V23.7348H154.001V8.26519H150.333L146.267 14.8066L142.2 8.26519H138.532V23.7348Z" fill="#363640"/>
</svg>
